<svg width="310" height="135" viewBox="0 0 310 135" fill="none" xmlns="http://www.w3.org/2000/svg">
<path d="M6.9855 21.4177V11.0497H17.9295V21.4177H6.9855ZM6.9855 79.5938V29.9617H17.9295V79.5938H6.9855ZM30.1418 79.5938V11.0497H41.0858V79.5938H30.1418Z" fill="#414141"/>
<path d="M155.01 63.6577H165.954C166.626 70.0897 171.33 72.2977 177.186 72.2977C181.41 72.2977 188.514 71.4337 188.226 65.7697C187.938 60.0097 179.97 59.3377 172.002 57.5137C163.938 55.7857 156.066 52.9057 156.066 42.8257C156.066 31.9777 167.778 28.6177 176.802 28.6177C186.978 28.6177 196.29 32.7457 197.538 43.8817H186.114C185.058 38.6017 180.93 37.2577 176.034 37.2577C172.866 37.2577 167.01 38.0257 167.01 42.3457C167.01 47.7217 175.074 48.5857 183.138 50.3137C191.106 52.1377 199.17 55.0177 199.17 64.8097C199.17 76.6177 187.266 80.9378 176.994 80.9378C164.418 80.9378 155.298 75.3697 155.01 63.6577ZM202.487 38.1217V29.9617H210.743V15.0817H221.687V29.9617H231.575V38.1217H221.687V64.6177C221.687 69.1297 222.071 71.4337 226.967 71.4337C228.503 71.4337 230.039 71.4337 231.575 71.0497V79.4977C229.175 79.7858 226.871 80.0738 224.471 80.0738C212.951 80.0738 211.031 75.6577 210.743 67.4017V38.1217H202.487Z" fill="#414141"/>
<path d="M161.503 99.7456V95.7056H164.023V99.7456H161.503ZM161.503 124.266V103.626H164.023V124.266H161.503ZM168.805 124.266V103.626H171.325V107.186H171.405C172.365 104.706 175.085 103.026 178.005 103.026C183.805 103.026 185.565 106.066 185.565 110.986V124.266H183.045V111.386C183.045 107.866 181.885 105.146 177.805 105.146C173.765 105.146 171.445 108.186 171.325 112.226V124.266H168.805ZM200.503 114.866H203.223C203.103 120.746 207.303 122.546 212.543 122.546C215.543 122.546 220.103 120.906 220.103 116.746C220.103 113.506 216.903 112.226 214.223 111.586L207.863 110.026C204.503 109.186 201.423 107.626 201.423 103.146C201.423 100.346 203.223 95.1056 211.263 95.1056C216.943 95.1056 221.823 98.1056 221.823 103.986H219.103C218.903 99.6656 215.383 97.4256 211.303 97.4256C207.583 97.4256 204.143 98.8656 204.143 103.106C204.143 105.786 206.103 106.946 208.463 107.466L215.423 109.186C219.463 110.266 222.823 112.066 222.823 116.706C222.823 118.666 222.023 124.866 211.903 124.866C205.143 124.866 200.183 121.826 200.503 114.866ZM228.138 112.506H241.498C241.378 108.706 238.978 105.146 234.938 105.146C230.778 105.146 228.578 108.746 228.138 112.506ZM244.018 114.626H228.138C228.138 118.306 230.138 122.746 234.938 122.746C238.618 122.746 240.618 120.626 241.418 117.466H243.938C242.858 122.146 240.178 124.866 234.938 124.866C228.378 124.866 225.618 119.826 225.618 113.946C225.618 108.506 228.378 103.026 234.938 103.026C241.538 103.026 244.218 108.826 244.018 114.626ZM247.4 124.266V103.626H249.72V108.466H249.8C251.08 105.106 253.88 103.186 257.6 103.346V105.866C253.04 105.666 249.92 108.946 249.92 113.266V124.266H247.4ZM260.017 124.266V95.7056H262.537V107.546H262.617C263.657 104.586 266.737 103.026 269.777 103.026C276.057 103.026 279.057 108.066 279.057 113.946C279.057 119.826 276.057 124.866 269.777 124.866C266.417 124.866 263.577 123.186 262.417 120.346H262.337V124.266H260.017ZM276.537 113.946C276.537 109.666 274.577 105.146 269.777 105.146C264.457 105.146 262.537 109.666 262.537 113.946C262.537 118.226 264.457 122.746 269.777 122.746C274.577 122.746 276.537 118.226 276.537 113.946ZM283.026 99.7456V95.7056H285.546V99.7456H283.026ZM283.026 124.266V103.626H285.546V124.266H283.026ZM292.649 109.946H290.129C290.409 105.106 293.729 103.026 298.489 103.026C302.129 103.026 306.089 104.106 306.089 109.666V120.626C306.089 121.626 306.569 122.146 307.569 122.146C307.849 122.146 308.089 122.106 308.369 121.986V124.106C307.769 124.226 307.409 124.266 306.729 124.266C304.169 124.266 303.769 122.786 303.769 120.666H303.689C301.889 123.346 300.169 124.866 296.169 124.866C292.329 124.866 289.249 122.986 289.249 118.826C289.249 113.066 294.889 112.826 300.329 112.186C302.409 111.986 303.569 111.626 303.569 109.386C303.569 105.986 301.169 105.146 298.169 105.146C295.009 105.146 292.769 106.586 292.649 109.946ZM303.569 116.266V112.986H303.489C303.169 113.586 302.049 113.786 301.369 113.906C297.089 114.666 291.769 114.666 291.769 118.666C291.769 121.186 293.969 122.746 296.369 122.746C300.249 122.746 303.569 120.306 303.569 116.266Z" fill="#414141"/>
<path d="M76.7644 84.3687L91.7728 59.1255L92.4005 58.0698L91.2939 57.537C90.1226 56.9729 89.0205 56.2885 88.0036 55.5001L86.9977 54.7202L86.3473 55.8142L69.0631 84.8852C67.7956 87.017 68.2178 89.6844 69.9339 91.3307C76.6059 102.788 84.2676 113.393 90.3861 121.271C93.6061 125.417 96.3917 128.798 98.3703 131.141C98.6204 131.438 98.8576 131.717 99.0811 131.98L99.9375 132.985L100.794 131.98C102.049 130.507 103.734 128.493 105.717 126.036C110.142 120.552 116.038 112.874 121.93 104.091C127.827 95.302 133.693 85.4449 138.078 75.6004C142.476 65.7278 145.312 56.0254 145.312 47.5031C145.312 22.2821 125.031 1.875 99.9375 1.875C74.8444 1.875 54.5625 22.2821 54.5625 47.5031C54.5625 54.949 56.7271 63.2822 60.1888 71.8223L61.0386 73.9186L62.1975 71.9761L66.8404 64.1943L67.1071 63.7473L66.939 63.2546C65.0513 57.7222 63.8989 52.3647 63.8989 47.5031C63.8989 27.4858 80.0496 11.2519 99.9375 11.2519C119.825 11.2519 135.976 27.4858 135.976 47.5031C135.976 57.9089 130.851 70.5824 124.141 82.735C117.385 94.9709 108.832 107.009 101.598 116.241L99.9279 118.372L98.2699 116.231C91.502 107.494 83.3971 96.0774 76.7644 84.3687ZM112.419 40.5C112.419 47.0002 107.023 52.3125 100.312 52.3125C93.6023 52.3125 88.206 47.0002 88.206 40.5C88.206 33.9998 93.6023 28.6875 100.312 28.6875C107.023 28.6875 112.419 33.9998 112.419 40.5ZM100.312 58.125C110.23 58.125 118.312 50.2577 118.312 40.5C118.312 30.7423 110.23 22.875 100.312 22.875C90.3953 22.875 82.3125 30.7423 82.3125 40.5C82.3125 50.2577 90.3953 58.125 100.312 58.125Z" fill="#FFC727" stroke="#FFC727" stroke-width="2.25"/>
</svg>
