<svg width="32" height="32" viewBox="0 0 32 32" fill="none" xmlns="http://www.w3.org/2000/svg">
<rect width="32" height="32" rx="5" fill="black"/>
<path fill-rule="evenodd" clip-rule="evenodd" d="M15.5853 23.8508V23.8508C15.6507 23.9344 15.7771 23.9348 15.843 23.8516V23.8516C17.0394 22.3403 18.452 20.3718 19.5665 18.374C20.6772 16.3828 21.5067 14.3367 21.5067 12.6776C21.5067 9.49149 18.9098 6.90933 15.7144 6.90933C12.5191 6.90933 9.9222 9.49149 9.9222 12.6776C9.9222 13.4485 10.1072 14.3071 10.4166 15.2046V15.2046C10.4519 15.3072 10.44 15.4201 10.384 15.513L9.61311 16.7919C9.45444 17.0552 9.06356 17.0251 8.94709 16.7406V16.7406C8.36815 15.3269 8 13.9335 8 12.6776C8 8.43489 11.4474 5 15.7144 5C19.9815 5 23.4289 8.43489 23.4289 12.6776C23.4289 14.1143 22.9468 15.735 22.2125 17.3668C21.4791 18.9964 20.4998 20.6247 19.5181 22.0732C18.5367 23.5213 17.555 24.7866 16.8185 25.69C16.4884 26.0949 16.2077 26.4269 15.9986 26.6698V26.6698C15.849 26.8436 15.5799 26.8436 15.4303 26.6698V26.6698C15.393 26.6266 15.3535 26.5805 15.3118 26.5316C14.9822 26.1452 14.5184 25.5879 13.9824 24.9048C13.0668 23.7378 11.9422 22.2061 10.9158 20.5339C10.695 20.1742 10.3725 19.8497 10.2993 19.4341C10.2576 19.1972 10.298 18.9449 10.4319 18.722L12.2656 15.669C12.9796 14.4804 12.6038 12.9142 12.6038 11.5276V11.5276C12.6038 9.8193 14.0323 8.44854 15.7766 8.44854C17.521 8.44854 18.9495 9.8193 18.9495 11.5276C18.9495 13.2359 17.521 14.6067 15.7766 14.6067V14.6067C15.1256 14.6067 14.4373 14.8189 14.1021 15.377L13.1693 16.9299C12.5006 18.0431 12.4792 19.4378 13.1913 20.5236C13.9952 21.7494 14.839 22.8971 15.5853 23.8508ZM10.8787 19.7533L10.8754 19.7502L10.8773 19.7519L10.8787 19.7533ZM17.5985 11.5276C17.5985 12.4891 16.7908 13.2827 15.7766 13.2827C14.7625 13.2827 13.9548 12.4891 13.9548 11.5276C13.9548 10.5661 14.7625 9.77254 15.7766 9.77254C16.7908 9.77254 17.5985 10.5661 17.5985 11.5276Z" fill="#FFC727"/>
</svg>
